<svg width="680" height="396" viewBox="0 0 680 396" fill="none" xmlns="http://www.w3.org/2000/svg">
    <g clip-path="url(#kmtfzqltya)">
        <mask id="x7m651kg6b" style="mask-type:luminance" maskUnits="userSpaceOnUse" x="0" y="0" width="680" height="396">
            <path d="M680 0H0v396h680V0z" fill="#fff"/>
        </mask>
        <g mask="url(#x7m651kg6b)">
            <path d="M678.715 338.782h-52.432a1.285 1.285 0 1 0 0 2.569h52.432a1.284 1.284 0 1 0 0-2.569zM490.784 338.782H37.277a1.285 1.285 0 1 0 0 2.569h453.507a1.285 1.285 0 1 0 0-2.569zM27.495 338.568H11.153c-.812 0-1.47.657-1.47 1.468v.06a1.47 1.47 0 0 0 1.47 1.469h16.342a1.47 1.47 0 0 0 1.47-1.469v-.06c0-.811-.659-1.468-1.47-1.468z" fill="#353766"/>
            <path d="m676.949 184.947-19.624-17.759v71.783h-15.043v-26.398H620.7v-19.856h-37.937L330.19 238.971h-13.625v-26.398l-32.795-32.768h-19.74v39.121h-25.952v-22.219h-46.437v28.063h-60.174v-24.398l-54.943 17.249v53.587h-37.28v-36.154H0S36.625 95.903 158.28 95.903c63.118-.489 96.149 39.014 129.175 39.014C320.481 134.917 354.172 0 484.002 0c129.83 0 192.947 111.751 192.947 184.947z" fill="#ECEDF1"/>
            <path d="M485.634 148.312H142.256c-5.599 0-10.138 4.536-10.138 10.13 0 5.594 4.539 10.129 10.138 10.129h343.378c5.599 0 10.138-4.535 10.138-10.129 0-5.594-4.539-10.13-10.138-10.13z" fill="#CCD2E9"/>
            <path d="M307.409 175.922c9.662 0 17.494-7.826 17.494-17.48s-7.832-17.48-17.494-17.48c-9.662 0-17.495 7.826-17.495 17.48s7.833 17.48 17.495 17.48z" fill="#CCD2E9"/>
            <path d="M307.409 150.599c-4.336 0-7.85 3.51-7.85 7.843 0 4.332 3.514 7.843 7.85 7.843a7.845 7.845 0 0 0 7.849-7.843 7.844 7.844 0 0 0-7.849-7.843z" fill="#fff"/>
            <path d="M192.948 175.922c9.662 0 17.494-7.826 17.494-17.48s-7.832-17.48-17.494-17.48c-9.662 0-17.495 7.826-17.495 17.48s7.833 17.48 17.495 17.48z" fill="#8794C4"/>
            <path d="M192.948 150.599c-4.336 0-7.85 3.51-7.85 7.843 0 4.332 3.514 7.843 7.85 7.843a7.845 7.845 0 0 0 7.849-7.843 7.844 7.844 0 0 0-7.849-7.843z" fill="#fff"/>
            <path d="M192.948 9.928c-19.778 0-35.812 16.02-35.812 35.782 0 33.491 27.962 83.162 35.812 83.162 7.849 0 35.811-48.035 35.811-83.162 0-19.762-16.033-35.782-35.811-35.782z" fill="#8794C4"/>
            <path d="M192.948 25.94c-10.926 0-19.787 8.849-19.787 19.77s8.857 19.77 19.787 19.77c10.926 0 19.786-8.849 19.786-19.77 0-10.917-8.856-19.77-19.786-19.77z" fill="#fff"/>
            <path d="M617.191 338.761c4.057 0 13.771.929 24.238-4.825 8.081-4.44 12.636-10.536 14.718-13.76a90.37 90.37 0 0 0-25.579 4.791 59.917 59.917 0 0 0 17.948-15.973c7.048-9.449 9.636-18.769 10.682-23.962a109.718 109.718 0 0 0-34.398 15.832 54.882 54.882 0 0 0 5.121-9.586c6.302-15.262 4.147-29.711 2.39-37.177a124.205 124.205 0 0 0-44.62 27.373l-118.819 8.785a133.293 133.293 0 0 0-23.274-13.507 133.309 133.309 0 0 0-30.576-9.585 83.919 83.919 0 0 0 11.719 20.584 83.969 83.969 0 0 0 20.768 19.059 66.685 66.685 0 0 0-7.207-2.74c-13.805-4.345-26.496-3.343-35.306-1.618 4.182 5.06 11.68 12.792 23.219 18.735a74.034 74.034 0 0 0 21.693 7.188 79.265 79.265 0 0 0-35.974.218 30.58 30.58 0 0 0 9.701 5.12 30.191 30.191 0 0 0 5.775 1.199c-1.525 1.28-3.05 2.564-4.58 3.844h192.365l-.004.005z" fill="#A0C09D"/>
            <path d="M614.881 338.136a106.603 106.603 0 0 0 17.516-2.586 107.295 107.295 0 0 0 11.847-3.511 131.173 131.173 0 0 0-11.191-.582c-4.889-.043-9.414.193-13.518.582a65.541 65.541 0 0 0 11.41-10.964 65.586 65.586 0 0 0 10.103-17.21 31.68 31.68 0 0 0-10.031 2.902 31.656 31.656 0 0 0-9.447 6.97c1.212-5.296 2.802-15.545-.364-27.703a58.047 58.047 0 0 0-9.375-19.677c-47.26 8.507-94.525 17.018-141.785 25.525l-10.9-7.843c-.433 3.442-1.131 12.698 4.178 22.257 3.355 6.046 7.751 9.762 10.501 11.727a74.012 74.012 0 0 0-28.051 3.484 147 147 0 0 0 30.956 9.149 66.449 66.449 0 0 0-23.257 1.456 43.372 43.372 0 0 0 8.214 4.106 43.644 43.644 0 0 0 11.264 2.568c47.312-.218 94.619-.432 141.93-.65z" fill="#8DB17D"/>
            <path d="M321.625 269.358v2.633h-5.429v-2.633h-14.495v34.464h34.012v-34.464h-14.088zM360.547 246.347v4.418h-3.252v-4.418h-14.478v37.396h31.831v-37.396h-14.101z" fill="#ECCB92"/>
            <path d="M374.695 246.381v37.889h-13.497l10.069-37.889h3.428z" fill="#E9BA7C"/>
            <path d="M354.39 283.743v6.242h-8.865v-6.242h-22.529v55.039h53.923v-55.039H354.39z" fill="#ECCB92"/>
            <path d="M376.837 283.842v55.013h-22.156l13.446-55.013h8.71z" fill="#E9BA7C"/>
            <path d="M310.395 303.822v2.671h-4.765v-2.671h-12.721v34.96h29.852v-34.96h-12.366z" fill="#ECCB92"/>
            <path d="m323.51 301.977.026 36.664h-7.464v-36.733l7.438.069z" fill="#E9BA7C"/>
            <path d="M630.838 396h-97.13c-.981-21.62 4.362-28.482-13.462-47.923-14.225-6.426-54.741-47.016-60.993-76.355l-3.38-7.625c-1.328.189-4.816.505-8.539-1.378-4.954-2.505-6.706-7.077-7.079-8.126a19.142 19.142 0 0 1-1.135-7.852 19.006 19.006 0 0 1 1.654-6.58 21.326 21.326 0 0 1-7.104-5.184c-4.002-4.466-4.983-9.406-5.27-11.482-.318-2.081-.69-6.444 1.199-11.393a22.384 22.384 0 0 1 4.988-7.723c-2.078-.916-5.973-2.98-9.165-7.196-4.975-6.572-4.761-13.756-4.624-15.811.056-1.233.48-8.245 6.368-13.306 4.503-3.87 9.541-4.315 11.183-4.392a20.69 20.69 0 0 1 15.643 6.807l-.313-4.894s-18.955-8.639-35.306-16.726c-16.35-8.087-10.681-23.525-9.319-25.978 1.363-2.449 10.112-12.39 22.73-6.482 12.619 5.908 22.431 11.003 22.431 11.003l104.349 61.268c0-27.34 17.006-38.993 25.506-39.049 8.501-.056 7.52 3.485 7.52 3.485s1.688 33.984 3.706 45.093c2.018 11.11 22.075 50.103 23.545 65.896 1.469 15.794.707 43.621-3.325 61.594C617.152 348.672 630.833 396 630.833 396h.005z" fill="#CF908F"/>
            <path d="M521.994 299.276c20.189-.454 38.699 7.338 46.574 11.195-5.638-3.926-15.27-14.642-15.617-42.127-.489-38.937-98.325-85.011-98.325-85.011-1.697 6.101-6.868 21.783-20.031 21.051 0 0 15.343 13.314 14.581 23.392-.763 10.073-8.394 12.39-8.394 12.39s8.784-.681 11.997 13.207c.93 4.016 3.407 10.75 6.453 18.293l.026.06v.013c2.956 7.295 6.435 15.335 9.576 22.408 3.488 5.835 7.627 11.683 12.057 17.27 6.221-3.9 21.085-11.692 41.103-12.137v-.004zM568.568 310.471c2.348 1.636 4.007 2.094 4.007 2.094s-1.44-.839-4.007-2.094zM594.023 188.055c-1.405-14.363-2.429-34.951-2.429-34.951s.009-.03.017-.086c-2.313 2.081-6.997 6.726-7.648 10.759-.874 5.39 1.418 25.378 1.418 25.378l8.642-1.104v.004zM464.464 133.419l-10.249-6.019s-2.404-1.251-6.363-3.224l-7.147 35.397c7.55 3.536 12.974 6.01 12.974 6.01.047.711.09 1.422.137 2.132l1.294.694s7.228-26.368 9.349-34.99h.005z" fill="#B47778"/>
            <path d="M555.976 62.047h-97.944c-4.38 0-7.931 3.548-7.931 7.924v197.525c0 4.377 3.551 7.925 7.931 7.925h97.944c4.38 0 7.931-3.548 7.931-7.925V69.971c0-4.376-3.551-7.924-7.931-7.924z" fill="#405488"/>
            <path d="M557.034 75.537h-99.417v186.398h99.417V75.537zM519.586 67.515h-25.164a1.752 1.752 0 1 0 0 3.502h25.164a1.751 1.751 0 1 0 0-3.502z" fill="#F2F3F7"/>
            <path d="m471.465 201.318 1.529 23.093 67.801-1.088 1.744-23.311-71.074 1.306z" fill="#DD2745"/>
            <path fill-rule="evenodd" clip-rule="evenodd" d="m542.541 200.012-71.075 1.306.72 10.861c12.183-.047 55.323.005 69.443.024l.912-12.191z" fill="#BB223B"/>
            <path d="M557.034 223.144h-99.739v38.791h99.739v-38.791z" fill="#8694C4"/>
            <path d="M540.298 228.152h-66.271a3.85 3.85 0 0 0-3.852 3.849v21.076a3.85 3.85 0 0 0 3.852 3.849h66.271a3.85 3.85 0 0 0 3.852-3.849v-21.076a3.85 3.85 0 0 0-3.852-3.849z" fill="#fff"/>
            <path d="M484.58 250.381c4.349 0 7.875-3.512 7.875-7.844 0-4.331-3.526-7.843-7.875-7.843-4.35 0-7.875 3.512-7.875 7.843 0 4.332 3.525 7.844 7.875 7.844z" fill="#CCD2EB"/>
            <path d="M538.605 235.122h-38.056v3.485h38.056v-3.485zM538.605 240.495h-38.056v3.485h38.056v-3.485zM538.605 245.868h-38.056v3.485h38.056v-3.485z" fill="#F3F2F5"/>
            <path d="M521.295 105.492c.33 1.837.33 7.852.33 7.852a1.643 1.643 0 0 1-2.099 1.58 1.65 1.65 0 0 1-1.153-1.216l-1.936-8.515c-.309-1.353 1.097-2.458 2.343-1.837l1.179.257c.557.278 1.088.496 1.336 1.879zM492.67 105.043c-.952 2.085-.322 9.435-.322 9.435 0 1.096.592.745 1.646.446a1.651 1.651 0 0 0 1.152-1.216l1.937-8.515c.308-1.353-1.097-2.458-2.344-1.837l-.54-.574c-.557.279-.951 1.002-1.525 2.261h-.004z" fill="#383663"/>
            <path d="M551.207 166.722c.488-7.732-1.526-16.774-5.125-19.171-3.599-2.398-31.831-11.435-31.831-11.435h-15.587s-27.037 9.093-30.306 10.784c-3.269 1.687-7.087 12.471-6.106 19.822h88.955z" fill="#DD2745"/>
            <path d="M485.908 166.722s-4.199-10.074-6.65-12.527c2.944 8.113 1.089 12.527 1.089 12.527h5.561zM527.77 166.722s3.689-8.862 5.848-11.015c-2.177 7.059-.96 11.015-.96 11.015h-4.888z" fill="#BB223B"/>
            <path d="m513.982 128.816.488 12.146s-3.162 1.871-6.213 1.871h-4.85c-2.614 0-4.199-6.717-4.199-6.717l.488-7.732 6.989 2.56 7.292-2.124.005-.004z" fill="#B1787B"/>
            <path d="M535.619 166.722h15.588s-.819-8.824-7.794-8.824-7.794 8.824-7.794 8.824zM477.952 166.722h-15.699s1.362-8.824 7.412-8.824 8.287 8.824 8.287 8.824z" fill="#B8737A"/>
            <path d="M545.32 161.567c4.143-.184 6.401.163 9.01 3.776 2.73 3.785 3.827 7.218 3.925 8.28.283 1.961.608 6.062-1.161 10.746a21.71 21.71 0 0 1-5.305 7.988l-11.992-16.7c.068-2.073-.287-5.647 1.435-9.261 1.046-2.192 2.044-4.439 4.088-4.829zM466.396 161.567c.895.197 2.605.711 4.07 2.18 3.133 3.133 2.271 7.697 2.181 8.134-3.44 6.631-6.881 13.263-10.317 19.894a23.436 23.436 0 0 1-2.425-2.487c-4.911-5.818-5.943-12.668-6.149-16.684.317-1.237 1.663-5.916 6.251-8.857 2.511-1.61 4.971-2.047 6.398-2.18h-.009z" fill="#CF908F"/>
            <path d="M514.251 136.116s-4.507 6.751-5.994 6.717c4.435.762 6.033 4.863 6.976 5.518.942.655 2.797.035 3.196-2.033.398-2.068.398-9.766-4.178-10.202zM499.208 136.116s4.508 6.751 5.994 6.717c-4.434.762-6.032 4.863-6.975 5.518-.943.655-2.798.035-3.196-2.033-.399-2.068-.399-9.766 4.177-10.202zM506.689 151.442a1.931 1.931 0 1 0 .002-3.862 1.931 1.931 0 0 0-.002 3.862zM506.689 162.877a1.931 1.931 0 1 0 .002-3.862 1.931 1.931 0 0 0-.002 3.862z" fill="#fff"/>
            <path d="M521.865 119.183c.853-3.299.128-6.339-1.62-6.79-1.748-.452-3.857 1.856-4.711 5.154-.853 3.299-.128 6.339 1.62 6.791 1.748.452 3.857-1.856 4.711-5.155zM497.514 124.308c1.749-.452 2.473-3.492 1.62-6.79-.854-3.299-2.963-5.607-4.711-5.155-1.748.451-2.473 3.492-1.62 6.79.854 3.299 2.963 5.607 4.711 5.155z" fill="#B47678"/>
            <path d="M506.689 134.553c6.624 0 11.993-7.997 11.993-17.861s-3.826-17.86-11.993-17.86-11.993 7.996-11.993 17.86c0 9.864 5.37 17.861 11.993 17.861z" fill="#CF908F"/>
            <path fill-rule="evenodd" clip-rule="evenodd" d="M518.053 110.181c-3.24-1.148-7.038-2.227-11.017-2.227-4.373 0-8.377.979-11.629 1.852 1.449-6.446 5.136-10.975 11.282-10.975 6.265 0 9.976 4.706 11.364 11.35z" fill="#B27677"/>
            <path d="M511.638 126.663c0-.553-1.933-.57-4.311-.57-2.377 0-4.31.017-4.31.57 0 .552 1.933 1.425 4.31 1.425 2.378 0 4.311-.873 4.311-1.425z" fill="#fff"/>
            <path d="M522.611 105.073c3.852-3.849-5.742-15.032-15.284-15.032-11.86 0-20.035 11.838-15.433 15.177 2.562 1.858 8.981-1.669 15.433-1.669 6.453 0 12.919 3.891 15.284 1.524z" fill="#DD2745"/>
            <path fill-rule="evenodd" clip-rule="evenodd" d="M490.803 100.974c1.669.054 3.8-.545 6.22-1.225 3.004-.844 6.452-1.813 10.013-1.813 3.378 0 6.861.971 9.928 1.827 2.41.673 4.562 1.273 6.206 1.275-1.563-4.761-8.717-10.997-15.842-10.997-8.608 0-15.275 6.236-16.525 10.933z" fill="#BB223B"/>
            <path d="M516.158 166.825v7.047h-18.312v-7.047h-35.538v40.958h89.387v-40.958h-35.537z" fill="#ECCB92"/>
            <path d="M551.652 166.752v40.885h-57.839l52.214-40.885h5.625z" fill="#E9BA7C"/>
            <path d="M253.713 272.098h17.683v-2.568h-35.61v2.568h15.356v7.51l-22.263 3.883.446 2.53 24.388-4.256v-9.667z" fill="#232A49"/>
            <path d="M116.53 339.249c10.957 0 19.839-8.875 19.839-19.822s-8.882-19.822-19.839-19.822c-10.956 0-19.838 8.875-19.838 19.822s8.882 19.822 19.838 19.822z" fill="#242A4A"/>
            <path d="M116.53 328.43c4.977 0 9.011-4.031 9.011-9.003s-4.034-9.003-9.011-9.003c-4.976 0-9.01 4.031-9.01 9.003s4.034 9.003 9.01 9.003z" fill="#fff"/>
            <path d="M139.968 318.438c0-12.724-10.322-23.037-23.056-23.037-8.989 0-16.766 5.142-20.57 12.638l41.929 19.073a22.91 22.91 0 0 0 1.697-8.674z" fill="#DD2745"/>
            <path fill-rule="evenodd" clip-rule="evenodd" d="m132.819 324.632 5.452 2.48a22.906 22.906 0 0 0 1.697-8.674c0-12.724-10.322-23.037-23.056-23.037-.271 0-.541.005-.809.014l-.631 2.208s16.185 12.387 17.347 27.009z" fill="#BB223B"/>
            <path fill-rule="evenodd" clip-rule="evenodd" d="m117.092 295.402-.18-.001c-8.989 0-16.766 5.142-20.57 12.638l2.899 1.319c1.569-2.436 7.301-10.575 13.819-10.575 1.863 0 3.296-2.048 4.032-3.381z" fill="#CC7A86"/>
            <path d="M255.555 321.302H145.966s-26.548-11.178-27.808-27.948c7.314-14.517 16.544-31.946 18.797-35.867 1.273-2.363-.865-3.113-1.752-3.113h-7.331l.137-14.924h2.901c1.654.167 5.587.809 8.878 3.913 4.224 3.982 5.685 10.399 3.903 16.594-1.65 3.485-4.919 10.155-8.917 19.244-6.975 15.866 8.428 33.654 18.57 33.654s31.103.073 31.103.073 7.558-24-14.898-33.402v-5.373l62.136 6.225-.073 5.793s23.948 7.239 23.948 35.135l-.005-.004z" fill="#BB223B"/>
            <path fill-rule="evenodd" clip-rule="evenodd" d="M139.149 257.397c.544-1.088 0-3.023-3.95-3.023h-7.327l.137-14.924h2.901c1.654.167 5.587.809 8.878 3.913 4.224 3.982 5.685 10.399 3.903 16.594-.302.637-.657 1.38-1.061 2.225-1.808 3.778-4.588 9.591-7.856 17.019-2.112 4.805-2.172 9.786-.947 14.397.113 7.191 2.761 17.5 10.125 26.778-6.216-3.001-24.746-13.078-25.794-27.022 1.919-3.808 3.97-7.817 5.991-11.729 1.242-.228 2.808-.762 3.337-2.009.667-1.57 6.148-11.853 9.361-17.882a515.65 515.65 0 0 0 2.302-4.337z" fill="#DD2745"/>
            <path d="M130.918 239.45h-3.106v14.924h3.106V239.45zM140.306 247.177a1.958 1.958 0 1 0-2.794 2.747l7.724 7.843c.76.772 2.002.782 2.773.023a1.958 1.958 0 0 0 .021-2.771l-7.724-7.842zM139.736 245.683l-1.114-.642c.48-.83.943-1.661 1.393-2.47 2.485-4.457 4.627-8.31 7.34-8.31v1.285c-1.959 0-4.028 3.716-6.218 7.65-.454.818-.921 1.653-1.401 2.487z" fill="#232A49"/>
            <path d="M147.354 232.51v7.3l2.181 1.742h2.4v-8.549s-.844-.925-.981-.981c-.137-.055-3.27 0-3.27 0l-.325.488h-.005zM230.447 281.967l-58.293-5.913a3.696 3.696 0 0 1 .669-7.363l56.737 3.446a3.701 3.701 0 0 1 2.884 1.721l1.551 2.466c1.649 2.624-.467 5.994-3.548 5.643z" fill="#232A49"/>
            <path d="M180.629 321.28h75.218s-.18-35.259-34.809-35.259c-25.361-1.011-40.405 35.259-40.405 35.259h-.004z" fill="#DD2745"/>
            <path d="M184.091 321.495c.909-7.321 8.154-16.509 13.291-21.608 10.232-10.536 23.836-12.004 37.414-7.671 8.064 2.397 13.797 8.682 14.718 17.189.27 2.149.244 4.405.253 6.524-.004 2.021.051 3.862.3 5.574h-9.319c.497-5.767 3.055-11.037 1.435-16.684-1.213-4.225-4.76-7.329-8.766-9.08-4.358-2.008-9.084-3.356-13.913-3.459-7.978-.317-15.06 3.472-20.168 9.474-3.775 4.337-6.898 9.406-8.629 14.864-.48 1.52-.904 3.438-.673 4.881h-5.943v-.004z" fill="#BB223B"/>
            <path d="M221.034 339.249c10.956 0 19.838-8.875 19.838-19.822s-8.882-19.822-19.838-19.822c-10.956 0-19.838 8.875-19.838 19.822s8.882 19.822 19.838 19.822z" fill="#242A4A"/>
            <path d="M221.034 328.43c4.976 0 9.01-4.031 9.01-9.003s-4.034-9.003-9.01-9.003c-4.977 0-9.011 4.031-9.011 9.003s4.034 9.003 9.011 9.003z" fill="#fff"/>
            <path d="M256.61 234.18v4.32h-5.635v-4.32h-14.786v35.179h35.207V234.18H256.61z" fill="#ECCB92"/>
            <path d="M271.22 269.5h-17.781s5.111-5.078 10.454-12.702c5.343-7.625 6.393-22.622 6.393-22.622h.934V269.5z" fill="#E9BA7C"/>
            <path d="m252.895 269.615.895-36.163" stroke="#232A49" stroke-miterlimit="10"/>
        </g>
    </g>
    <defs>
        <clipPath id="kmtfzqltya">
            <path fill="#fff" d="M0 0h680v396H0z"/>
        </clipPath>
    </defs>
</svg>
